<svg xmlns="http://www.w3.org/2000/svg" width="96" height="96" viewBox="0 0 96 96"><defs><linearGradient id="w" x1="0" x2="0" y1="0" y2="1"><stop stop-color="#d99a63"/><stop offset="1" stop-color="#b56c45"/></linearGradient><linearGradient id="r" x1="0" x2="1"><stop stop-color="#6d3f35"/><stop offset="1" stop-color="#8a5140"/></linearGradient></defs><ellipse cx="48" cy="82" rx="34" ry="9" fill="#213a2a" opacity=".18"/><path d="M20 42L48 22l28 20v34H20z" fill="url(#w)" stroke="#4a382d" stroke-width="3"/><path d="M14 43L48 17l34 26-5 6-29-21-29 21z" fill="url(#r)" stroke="#4a382d" stroke-width="3"/><path d="M24 40h48" stroke="#f4f1df" stroke-width="5" stroke-linecap="round" opacity=".9"/><rect x="40" y="52" width="16" height="24" rx="3" fill="#533d32"/><circle cx="48" cy="61" r="5" fill="#f1d08a"/><path d="M14 72h68M20 64v18M32 64v18M64 64v18M76 64v18" stroke="#eee1bd" stroke-width="3" stroke-linecap="round"/><circle cx="24" cy="75" r="6" fill="#f9f2df" stroke="#7b5b43" stroke-width="2"/><circle cx="29" cy="72" r="3" fill="#f9f2df"/><path d="M31 72l5 2-5 2z" fill="#d7a23d"/><circle cx="22" cy="69" r="2" fill="#c85d4f"/></svg>